<svg width="226" height="81" viewBox="0 0 226 81" fill="none" xmlns="http://www.w3.org/2000/svg">
<path d="M110.245 4.52149C110.121 4.29325 109.929 4.10885 109.696 3.99351C109.463 3.87816 109.2 3.83751 108.943 3.87713C108.639 3.6451 108.265 3.52212 107.882 3.52804C107.499 3.53395 107.129 3.6684 106.832 3.90972C106.605 3.77728 106.349 3.70477 106.086 3.69907C105.823 3.69337 105.563 3.75466 105.331 3.87713C105.101 4.00597 104.907 4.19054 104.767 4.41384C104.626 4.63713 104.545 4.892 104.529 5.15499C104.265 5.11694 103.995 5.16076 103.757 5.28051C103.518 5.40027 103.322 5.5902 103.195 5.82469C103.076 6.06416 103.033 6.33381 103.072 6.59812C103.11 6.86243 103.227 7.10897 103.409 7.30527C103.121 7.40089 102.879 7.59878 102.729 7.86118C102.578 8.12358 102.53 8.43212 102.592 8.72795C102.655 9.02379 102.825 9.28621 103.069 9.46514C103.313 9.64408 103.615 9.727 103.916 9.6981L110.009 5.95863C110.192 5.77264 110.313 5.53469 110.355 5.27739C110.398 5.02008 110.359 4.75604 110.245 4.52149Z" fill="#263238"/>
<path d="M103.739 9.86825C103.844 8.5661 104.438 7.35142 105.4 6.46597C106.362 5.58052 107.623 5.08921 108.932 5.08984H109.201C112.102 5.26722 113.009 7.95326 112.747 10.8565L112.457 21.6622L107.837 25.6442L106.477 22.683L106.15 19.787C106.15 19.787 103.365 19.3418 103.34 16.529C103.329 15.1752 103.536 12.3878 103.739 9.86825Z" fill="#FFBF9D"/>
<path d="M106.129 19.7653C107.424 19.7686 108.694 19.3991 109.784 18.701C109.784 18.701 109.019 20.7898 106.238 20.5291L106.129 19.7653Z" fill="#FF9A6C"/>
<path d="M104.537 12.4638C104.536 12.5679 104.575 12.6684 104.647 12.744C104.719 12.8196 104.817 12.8645 104.921 12.8692C104.972 12.8732 105.023 12.8668 105.072 12.8506C105.12 12.8344 105.165 12.8087 105.203 12.7749C105.241 12.7411 105.272 12.7 105.294 12.654C105.316 12.6081 105.329 12.5581 105.331 12.5072C105.334 12.4032 105.295 12.3022 105.224 12.2262C105.153 12.1503 105.054 12.1056 104.95 12.1018C104.899 12.0973 104.847 12.1033 104.799 12.1192C104.75 12.1352 104.705 12.1609 104.666 12.1947C104.627 12.2285 104.596 12.2698 104.574 12.316C104.552 12.3623 104.539 12.4125 104.537 12.4638Z" fill="#263238"/>
<path d="M104.301 11.3814C104.352 11.4357 104.664 11.2113 105.081 11.2149C105.498 11.2185 105.824 11.4321 105.871 11.3814C105.918 11.3308 105.842 11.262 105.708 11.1642C105.523 11.0341 105.303 10.9645 105.077 10.9651C104.853 10.963 104.634 11.0328 104.453 11.1642C104.323 11.2656 104.279 11.3597 104.301 11.3814Z" fill="#263238"/>
<path d="M108.21 12.6593C108.208 12.7633 108.246 12.8643 108.317 12.9403C108.389 13.0162 108.487 13.0609 108.591 13.0647C108.642 13.0686 108.694 13.0624 108.742 13.0462C108.791 13.03 108.836 13.0043 108.874 12.9706C108.913 12.9369 108.944 12.8958 108.967 12.8498C108.989 12.8038 109.002 12.7538 109.005 12.7027C109.006 12.5986 108.966 12.4981 108.895 12.4225C108.823 12.3469 108.725 12.302 108.62 12.2973C108.569 12.2933 108.518 12.2997 108.47 12.3159C108.421 12.3321 108.377 12.3578 108.339 12.3916C108.3 12.4254 108.269 12.4665 108.247 12.5125C108.225 12.5584 108.213 12.6084 108.21 12.6593Z" fill="#263238"/>
<path d="M108.399 11.338C108.45 11.3887 108.762 11.1679 109.179 11.1679C109.596 11.1679 109.922 11.3887 109.969 11.3344C110.017 11.2801 109.94 11.2186 109.806 11.1172C109.622 10.987 109.401 10.9174 109.175 10.9181C108.953 10.9197 108.737 10.9892 108.555 11.1172C108.421 11.2186 108.377 11.3127 108.399 11.338Z" fill="#263238"/>
<path d="M106.977 14.52C106.753 14.4469 106.52 14.4043 106.285 14.3933C106.176 14.3933 106.071 14.3571 106.053 14.2811C106.045 14.1689 106.07 14.0569 106.125 13.9589L106.452 13.1227C106.749 12.4185 106.992 11.6923 107.177 10.9507C106.82 11.633 106.516 12.3423 106.27 13.072C106.158 13.3652 106.056 13.644 105.955 13.9118C105.887 14.0447 105.867 14.1966 105.897 14.3426C105.913 14.3817 105.937 14.4167 105.969 14.4449C106 14.4731 106.037 14.4938 106.078 14.5055C106.138 14.5219 106.2 14.5304 106.263 14.5309C106.501 14.5591 106.741 14.5554 106.977 14.52Z" fill="#263238"/>
<path d="M108.25 14.8204C108.181 14.8204 108.178 15.2838 107.779 15.6132C107.38 15.9426 106.883 15.892 106.879 15.9571C106.876 16.0223 106.992 16.0476 107.199 16.0549C107.472 16.0595 107.738 15.9671 107.949 15.7942C108.15 15.6273 108.28 15.3905 108.312 15.1318C108.323 14.9363 108.272 14.8204 108.25 14.8204Z" fill="#263238"/>
<path d="M108.399 10.1073C108.45 10.2195 108.82 10.1073 109.266 10.129C109.712 10.1507 110.089 10.234 110.136 10.129C110.154 10.0783 110.082 9.97693 109.922 9.87919C109.72 9.76434 109.491 9.70327 109.259 9.70181C109.029 9.69603 108.801 9.75364 108.602 9.86833C108.446 9.95521 108.377 10.0566 108.399 10.1073Z" fill="#263238"/>
<path d="M104.402 10.205C104.471 10.3063 104.765 10.2303 105.128 10.2593C105.49 10.2882 105.773 10.3787 105.853 10.2846C105.933 10.1905 105.853 10.1362 105.723 10.0312C105.558 9.90401 105.358 9.83069 105.15 9.82125C104.942 9.80685 104.736 9.85747 104.558 9.96605C104.424 10.0565 104.373 10.1543 104.402 10.205Z" fill="#263238"/>
<path d="M104.011 8.58677C104.011 8.58677 104.736 6.83831 105.596 6.41477C106.615 5.92607 107.046 7.04827 108.022 6.77677C108.997 6.50527 109.969 6.03467 110.959 6.77677C112.047 7.60575 111.532 8.18495 111.594 9.42661C111.852 14.462 112.762 15.8883 113.045 13.5172C113.074 13.2566 113.792 13.0539 113.904 11.957C114.046 10.5343 114.107 8.80397 113.792 7.79399C113.531 6.93967 113.048 6.34599 112.182 5.70163C110.818 4.66993 108.936 4.6446 107.659 4.76768C106.383 4.89076 103.898 6.39305 104.011 8.58677Z" fill="#263238"/>
<path d="M112.501 13.4738C112.504 13.3717 112.529 13.2713 112.572 13.1788C112.616 13.0864 112.678 13.0038 112.755 12.936C112.831 12.8683 112.921 12.8169 113.018 12.7848C113.116 12.7528 113.218 12.7409 113.32 12.7498C113.839 12.8005 114.408 13.1118 114.379 14.1797C114.311 16.0911 112.414 15.6277 112.41 15.5734C112.407 15.5191 112.465 14.2738 112.501 13.4738Z" fill="#FFBF9D"/>
<path d="M112.849 14.8603C112.849 14.8603 112.882 14.8856 112.94 14.9146C113.019 14.9456 113.107 14.9456 113.186 14.9146C113.311 14.8399 113.415 14.7337 113.486 14.6067C113.557 14.4796 113.594 14.3362 113.592 14.1906C113.604 14.0264 113.578 13.8618 113.516 13.7091C113.5 13.6493 113.47 13.5941 113.429 13.5482C113.387 13.5022 113.335 13.4668 113.277 13.4449C113.239 13.4339 113.198 13.4365 113.162 13.4524C113.125 13.4682 113.095 13.4963 113.077 13.5317C113.048 13.5824 113.059 13.6222 113.048 13.6259C113.038 13.6295 113.009 13.5897 113.027 13.5136C113.039 13.4659 113.067 13.4238 113.106 13.3942C113.133 13.3755 113.163 13.3624 113.195 13.3555C113.227 13.3487 113.26 13.3483 113.291 13.3544C113.369 13.3723 113.442 13.41 113.501 13.4639C113.56 13.5178 113.604 13.5861 113.629 13.662C113.703 13.8304 113.737 14.014 113.727 14.1978C113.73 14.3685 113.683 14.5365 113.592 14.6807C113.5 14.8249 113.368 14.939 113.212 15.0087C113.16 15.021 113.106 15.0219 113.054 15.0113C113.002 15.0007 112.953 14.9788 112.911 14.9471C112.853 14.9073 112.845 14.8639 112.849 14.8603Z" fill="#FF9A6C"/>
<path d="M112.827 9.76688C112.592 9.95246 112.314 10.0768 112.018 10.1289C111.87 10.1513 111.718 10.1187 111.592 10.0374C111.466 9.95609 111.374 9.83157 111.333 9.68724C111.308 9.55692 111.333 9.40125 111.257 9.29627C111.181 9.19129 110.959 9.21301 110.8 9.22749C110.521 9.24873 110.243 9.17268 110.013 9.01229C109.784 8.8519 109.617 8.61709 109.541 8.34784C109.456 8.44267 109.338 8.50204 109.211 8.51411C109.084 8.52618 108.958 8.49008 108.856 8.41299C108.659 8.25019 108.484 8.06145 108.337 7.8519C108.264 7.74789 108.166 7.66347 108.052 7.60604C107.938 7.54861 107.812 7.51991 107.685 7.52248C107.55 7.56639 107.412 7.59671 107.271 7.61298C107.021 7.58764 106.908 7.29441 106.861 7.04463C106.814 6.79485 106.796 6.50525 106.586 6.36769C106.368 6.28038 106.127 6.27268 105.904 6.34598C105.672 6.37856 105.374 6.32425 105.316 6.09619C105.307 6.03598 105.31 5.97456 105.325 5.91553C105.34 5.85649 105.367 5.80101 105.403 5.7523C105.557 5.52244 105.784 5.35117 106.047 5.26638C106.311 5.1816 106.595 5.18827 106.854 5.28532C106.948 4.96842 107.135 4.68661 107.39 4.47564C107.645 4.26466 107.957 4.13401 108.286 4.10027C108.616 4.06653 108.948 4.13122 109.24 4.28613C109.533 4.44104 109.773 4.67919 109.929 4.97038C110.133 4.78682 110.377 4.65516 110.642 4.58671C110.908 4.51825 111.185 4.51502 111.452 4.57731C111.719 4.63961 111.967 4.76556 112.174 4.94435C112.381 5.12315 112.542 5.34946 112.642 5.60388C112.876 5.54587 113.122 5.55669 113.35 5.63507C113.577 5.71344 113.778 5.85601 113.926 6.04552C114.07 6.23886 114.156 6.46943 114.174 6.70999C114.191 6.95054 114.139 7.19102 114.024 7.40302C114.201 7.49299 114.352 7.6261 114.464 7.79001C114.575 7.95392 114.644 8.14331 114.662 8.3406C114.666 8.43774 114.648 8.53448 114.61 8.62403C114.572 8.71358 114.515 8.79378 114.443 8.85897C114.371 8.92417 114.285 8.9728 114.192 9.00144C114.099 9.03009 114.001 9.03805 113.904 9.02477C113.973 9.18229 113.983 9.35909 113.934 9.52356C113.884 9.68803 113.777 9.82945 113.632 9.92254C113.479 9.99909 113.303 10.0189 113.137 9.97848C112.97 9.93806 112.823 9.84001 112.722 9.70172" fill="#263238"/>
<path d="M114.053 9.02844C114.061 9.09386 114.055 9.16027 114.034 9.22288C114.013 9.28548 113.979 9.34271 113.933 9.39044C113.841 9.51326 113.704 9.59514 113.553 9.6185C113.456 9.63422 113.357 9.62807 113.262 9.60051C113.168 9.57294 113.082 9.52466 113.009 9.45922H113.088C112.988 9.63663 112.859 9.79674 112.708 9.93344C112.602 10.0288 112.479 10.1026 112.345 10.1506C112.222 10.1951 112.089 10.2063 111.96 10.1832C111.851 10.175 111.745 10.142 111.65 10.0868C111.555 10.0316 111.474 9.95567 111.413 9.86466C111.335 9.74372 111.283 9.60819 111.26 9.46646C111.248 9.41533 111.248 9.36193 111.26 9.3108C111.284 9.35681 111.302 9.4054 111.315 9.4556C111.355 9.584 111.414 9.70593 111.489 9.8176C111.56 9.89893 111.647 9.96467 111.744 10.0106C111.842 10.0565 111.948 10.0817 112.056 10.0844C112.163 10.0871 112.271 10.0674 112.37 10.0264C112.47 9.98548 112.56 9.92422 112.635 9.84657C112.778 9.71752 112.9 9.56735 112.998 9.4013L113.034 9.347L113.081 9.39044C113.142 9.44673 113.214 9.48915 113.293 9.51478C113.372 9.54041 113.456 9.54862 113.538 9.53886C113.671 9.52173 113.793 9.45749 113.883 9.35786C113.963 9.26204 114.021 9.14951 114.053 9.02844Z" fill="#455A64"/>
<path d="M110.463 4.64468C110.463 4.64468 110.415 4.64467 110.328 4.69535C110.207 4.74731 110.103 4.83426 110.031 4.94513L110.009 4.98495L109.984 4.94876C109.746 4.62334 109.429 4.3641 109.063 4.19579C108.827 4.0885 108.571 4.03177 108.312 4.02927C108.027 4.02759 107.748 4.10668 107.507 4.25733C107.315 4.37238 107.15 4.52806 107.025 4.71345C106.902 4.88975 106.824 5.09373 106.8 5.30713V5.36868L106.742 5.35057C106.475 5.28015 106.191 5.3138 105.947 5.44469C105.758 5.55078 105.606 5.71259 105.512 5.90805C105.434 6.08749 105.394 6.28083 105.393 6.4764C105.376 6.42616 105.369 6.37348 105.371 6.32073C105.367 6.17012 105.397 6.02059 105.458 5.88271C105.549 5.66892 105.707 5.49002 105.908 5.37229C106.036 5.29671 106.178 5.24726 106.325 5.22675C106.473 5.20625 106.623 5.21511 106.767 5.25283L106.705 5.29627C106.727 5.07262 106.803 4.8576 106.927 4.67001C107.061 4.47201 107.237 4.30532 107.442 4.18132C107.702 4.02042 108.002 3.93632 108.308 3.93877C108.581 3.94416 108.85 4.00837 109.095 4.12701C109.471 4.30795 109.791 4.58531 110.024 4.93065H109.973C110.056 4.81412 110.174 4.72769 110.31 4.68449C110.357 4.6578 110.409 4.64405 110.463 4.64468Z" fill="#455A64"/>
<path d="M112.657 18.5817L112.874 20.0297L104.838 24.189L105.364 21.8469C106.118 21.187 106.952 20.6251 107.848 20.1745C109.386 19.4645 110.999 18.9302 112.657 18.5817Z" fill="#F5F5F5"/>
<path d="M114.028 20.8441C114.028 20.8441 116.069 26.2017 116.091 28.1782C116.113 30.1547 114.96 35.5087 114.96 35.5087L109.193 46.4918L108.178 54.597C104.348 54.597 99.2199 53.8476 93.7074 52.8521C93.7074 52.8521 97.9288 37.6662 99.2598 35.6246C100.591 33.5829 105.258 24.2324 105.258 24.2324C105.627 23.4549 106.154 22.7631 106.807 22.2016C108.424 20.7536 111.391 19.9898 114.038 19.6676L114.028 20.8441Z" fill="#FF725E"/>
<path d="M111.83 23.0993C110.183 23.045 107.917 23.95 106.753 26.6831L105.523 30.0896L100.954 36.6381L88.9601 35.849L88.2348 40.8011C88.2348 40.8011 101.291 43.6971 102.836 43.5306C104.381 43.3641 111.783 35.6426 111.783 35.6426C111.783 35.6426 115.634 30.8461 115.446 26.8497" fill="#FF725E"/>
<path d="M115.438 26.8498C115.435 26.9052 115.435 26.9608 115.438 27.0163C115.438 27.1393 115.438 27.3022 115.438 27.5122C115.438 27.7222 115.377 27.9973 115.34 28.3122C115.275 28.6783 115.19 29.0408 115.087 29.3982C114.637 30.9946 113.578 33.2209 111.746 35.6138C110.619 36.7758 109.349 38.0464 107.938 39.3894C107.235 40.0591 106.488 40.7505 105.708 41.4383C105.316 41.7786 104.91 42.1225 104.489 42.4556C104.073 42.7979 103.623 43.0986 103.148 43.3533C103.035 43.4108 102.911 43.4441 102.785 43.4511C102.647 43.4511 102.517 43.4511 102.379 43.4511C102.1 43.4221 101.82 43.4004 101.541 43.3533C100.975 43.2773 100.409 43.1796 99.8328 43.0818C98.6832 42.8827 97.5118 42.6547 96.315 42.4194C93.9286 41.9415 91.4552 41.4202 88.9202 40.87L88.2783 40.7288L88.3617 40.8483C88.6156 39.165 88.8622 37.5107 89.087 35.8998L88.9746 35.9903L100.968 36.7613H100.997L101.026 36.7179L105.581 30.1584L106.339 28.0299C106.538 27.3937 106.78 26.772 107.064 26.1692C107.548 25.2151 108.291 24.4161 109.208 23.8633C109.788 23.5182 110.432 23.293 111.101 23.2008C111.274 23.1754 111.448 23.1597 111.623 23.1537C111.682 23.1586 111.742 23.1586 111.801 23.1537C111.566 23.1289 111.329 23.1289 111.094 23.1537C110.415 23.2315 109.759 23.4484 109.168 23.7908C108.226 24.3397 107.46 25.1445 106.959 26.1113C106.664 26.7155 106.412 27.3397 106.205 27.9792L105.432 30.1041V30.086L100.885 36.5839L100.968 36.5441L88.9746 35.7441H88.8803V35.8418C88.6385 37.4564 88.3907 39.1059 88.1368 40.7904V40.8917L88.2348 40.9134L88.8731 41.0546C91.4117 41.6049 93.8851 42.1406 96.2751 42.6004C97.4719 42.832 98.6469 43.0601 99.7966 43.2592C100.377 43.3569 100.946 43.4511 101.512 43.5271C101.795 43.5741 102.081 43.5923 102.364 43.6248C102.506 43.6248 102.654 43.6248 102.799 43.6248C102.95 43.6153 103.097 43.5746 103.231 43.5054C103.722 43.2448 104.185 42.9343 104.613 42.5786C105.036 42.2432 105.443 41.9005 105.835 41.5506C106.622 40.8591 107.358 40.1641 108.065 39.4908C109.469 38.1369 110.735 36.859 111.855 35.6898C113.687 33.268 114.724 31.0236 115.156 29.4055C115.254 29.0479 115.334 28.6854 115.395 28.3195C115.424 27.9973 115.467 27.7294 115.471 27.5122C115.475 27.295 115.471 27.1502 115.471 27.0126C115.466 26.9574 115.455 26.9028 115.438 26.8498Z" fill="#263238"/>
<path d="M104.185 24.5944C104.288 24.5154 104.385 24.4283 104.475 24.3338C104.566 24.2433 104.674 24.1383 104.812 24.0225C104.95 23.9067 105.095 23.7655 105.273 23.6279C105.682 23.2963 106.111 22.9893 106.557 22.7084C107.108 22.3735 107.68 22.0736 108.268 21.8107C109.347 21.3498 110.468 20.9958 111.616 20.7536C112.058 20.6595 112.417 20.5907 112.664 20.5473C112.794 20.5311 112.923 20.5045 113.048 20.4677C112.917 20.4691 112.786 20.4812 112.657 20.5039C112.407 20.5328 112.044 20.5871 111.601 20.674C110.44 20.8918 109.307 21.2366 108.221 21.7021C107.626 21.9651 107.05 22.2712 106.499 22.6179C106.051 22.9037 105.623 23.2193 105.218 23.5627C105.044 23.7039 104.899 23.8523 104.765 23.9718C104.631 24.0913 104.526 24.2071 104.442 24.3012C104.348 24.3915 104.262 24.4896 104.185 24.5944Z" fill="#263238"/>
<path d="M94.7955 13.0864L95.9342 16.4422L96.3368 17.0033C96.3368 17.0033 96.6995 18.8676 96.6995 19.2658C96.5861 20.1029 96.4214 20.9322 96.2062 21.7491L97.3631 23.6025L94.1535 24.8333C94.1535 24.8333 93.2831 23.1392 93.0438 22.9473C92.7782 22.6323 92.6128 22.2453 92.5687 21.836C92.5107 21.474 92.0319 19.2658 92.0319 19.2658C92.0319 19.2658 90.6067 16.8368 91.2014 16.7137C91.3497 16.6986 91.4992 16.6986 91.6475 16.7137C91.6475 16.7137 92.5034 18.3101 92.7355 18.3427L93.0583 18.1544C93.0583 18.1544 92.391 15.7109 92.3547 15.2584C92.3184 14.8059 92.4164 14.4801 92.7681 14.4258C92.7681 14.4258 93.0329 14.5344 93.0583 14.6503C93.0837 14.7661 93.7473 17.492 93.8997 17.4377C94.052 17.3834 93.9795 17.1408 93.9795 17.1408C93.9795 17.1408 93.0909 13.8358 93.1308 13.6475C93.147 13.5193 93.2107 13.4018 93.3094 13.318C93.408 13.2343 93.5345 13.1904 93.6639 13.195L94.3421 15.005C94.3421 15.005 94.0266 13.4774 94.2732 13.195C94.3355 13.1211 94.4208 13.0703 94.5155 13.0506C94.6102 13.0309 94.7088 13.0435 94.7955 13.0864Z" fill="#FFBF9D"/>
<path d="M94.1063 20.5111C94.1353 20.5111 94.1063 20.2251 94.2224 19.7871C94.3778 19.1774 94.7279 18.6348 95.2197 18.2414L95.2632 18.2088V18.1581C95.2076 17.9168 95.1496 17.6634 95.0891 17.3979C95.0347 17.3183 94.9767 17.2278 94.9223 17.1337C94.7459 16.8351 94.6231 16.5079 94.5597 16.1671C94.5268 16.0181 94.5268 15.8637 94.5597 15.7146C94.5721 15.6546 94.6017 15.5994 94.6448 15.5558C94.6879 15.5121 94.7427 15.4818 94.8026 15.4685L94.7482 15.4467C95.1327 15.8087 95.4554 16.1164 95.6839 16.3228C95.7926 16.4389 95.9143 16.5421 96.0466 16.6305C95.9551 16.4985 95.8493 16.3771 95.7311 16.2685C95.5171 16.044 95.2125 15.7255 94.8353 15.349L94.8135 15.3273H94.7809C94.6937 15.3436 94.613 15.3848 94.5487 15.4458C94.4844 15.5068 94.439 15.5851 94.4182 15.6712C94.3741 15.8415 94.3679 16.0195 94.4001 16.1925C94.4647 16.5544 94.595 16.9016 94.7845 17.2169C94.8373 17.3137 94.8967 17.4069 94.9622 17.4957V17.4667L95.1435 18.2233L95.1762 18.14C94.6561 18.5558 94.3003 19.1418 94.1716 19.7943C94.1355 19.9791 94.1209 20.1674 94.1281 20.3555C94.1143 20.4062 94.107 20.4585 94.1063 20.5111Z" fill="#FF9A6C"/>
<path d="M94.1064 17.7961C93.7342 17.8568 93.3828 18.0086 93.0836 18.2378C92.7561 18.4232 92.4785 18.6854 92.2749 19.0016C92.5884 18.8127 92.8899 18.6047 93.1779 18.379C93.4979 18.2018 93.8078 18.0072 94.1064 17.7961Z" fill="#FF9A6C"/>
<path d="M92.8044 24.5438L97.6424 22.4803L100.344 26.7519L94.2151 27.2588L92.8044 24.5438Z" fill="#FF725E"/>
<path d="M136.353 15.1788L137.391 18.2305L137.753 18.7445C137.753 18.7445 138.069 20.4423 138.087 20.8043C137.983 21.5656 137.833 22.32 137.637 23.0632L138.693 24.7537L135.769 25.8723C135.769 25.8723 134.975 24.3302 134.758 24.1564C134.515 23.8698 134.364 23.5164 134.326 23.1428C134.272 22.8061 133.836 20.8043 133.836 20.8043C133.836 20.8043 132.538 18.5925 133.079 18.4803C133.214 18.4657 133.35 18.4657 133.485 18.4803C133.485 18.4803 134.268 19.9282 134.475 19.9644L134.772 19.7943C134.772 19.7943 134.163 17.5716 134.13 17.1553C134.098 16.739 134.185 16.4313 134.493 16.3988C134.493 16.3988 134.732 16.4929 134.754 16.6015C134.776 16.7101 135.385 19.1861 135.523 19.1355C135.661 19.0848 135.595 18.864 135.595 18.864C135.595 18.864 134.783 15.8557 134.823 15.682C134.838 15.5659 134.896 15.4595 134.985 15.3833C135.074 15.3071 135.188 15.2665 135.305 15.2693L135.925 16.9236C135.925 16.9236 135.639 15.5336 135.86 15.2838C135.917 15.2117 135.998 15.1618 136.088 15.1426C136.178 15.1234 136.272 15.1362 136.353 15.1788Z" fill="#AE7461"/>
<path d="M135.733 21.9337C135.759 21.9337 135.733 21.6767 135.838 21.2604C135.979 20.706 136.297 20.2127 136.745 19.8558L136.789 19.8232V19.7798L136.629 19.0884C136.578 19.016 136.527 18.9327 136.477 18.8494C136.316 18.577 136.202 18.2797 136.139 17.9698C136.11 17.8338 136.11 17.6931 136.139 17.5571C136.151 17.5024 136.178 17.4521 136.217 17.4123C136.256 17.3724 136.306 17.3448 136.361 17.3327L136.31 17.3109C136.673 17.6476 136.955 17.9227 137.162 18.111C137.263 18.2185 137.378 18.3122 137.503 18.3897C137.421 18.2679 137.325 18.1561 137.217 18.0567C137.021 17.8503 136.741 17.5643 136.401 17.2204L136.382 17.1987H136.353C136.268 17.2077 136.188 17.2423 136.123 17.2979C136.059 17.3535 136.012 17.4275 135.991 17.51C135.95 17.6662 135.944 17.8292 135.973 17.9879C136.037 18.3183 136.159 18.6346 136.335 18.9218C136.39 19.0087 136.44 19.0956 136.498 19.1752V19.1463C136.553 19.3852 136.611 19.6169 136.662 19.8377L136.691 19.7617C136.218 20.1393 135.894 20.6713 135.777 21.264C135.745 21.4334 135.732 21.6058 135.737 21.778C135.728 21.8294 135.727 21.8819 135.733 21.9337Z" fill="#6F4439"/>
<path d="M135.733 19.4648C135.395 19.52 135.075 19.6594 134.805 19.8703C134.511 20.0388 134.262 20.2761 134.079 20.5617C134.364 20.3901 134.638 20.2015 134.899 19.997C135.187 19.8359 135.466 19.6582 135.733 19.4648Z" fill="#6F4439"/>
<path d="M151.219 8.58681C150.657 7.92797 150.827 6.85282 151.429 6.23018C152.075 5.63885 152.926 5.3231 153.801 5.35053C155.14 5.32157 156.568 5.82113 157.308 6.93971C158.048 8.05829 157.816 9.81037 156.63 10.4366C157.222 10.548 157.773 10.8183 158.222 11.2185C158.632 11.6602 158.73 12.4421 158.262 12.8186C157.733 13.2494 156.949 12.891 156.373 12.529C156.536 12.7159 156.621 12.9581 156.611 13.2059C156.601 13.4536 156.496 13.6881 156.318 13.8611C156.132 14.0261 155.908 14.1427 155.665 14.2007C155.423 14.2588 155.17 14.2566 154.929 14.1942C154.448 14.068 153.997 13.845 153.605 13.539" fill="#263238"/>
<path d="M153.221 9.19492C153.056 8.84758 152.837 8.52865 152.572 8.25011C152.439 8.11028 152.276 8.00268 152.095 7.93554C151.914 7.86841 151.72 7.84351 151.527 7.86276C151.437 7.86981 151.35 7.90022 151.275 7.951C151.2 8.00178 151.139 8.07117 151.099 8.15236C151.083 8.19339 151.076 8.2377 151.08 8.28178C151.083 8.32586 151.097 8.36852 151.12 8.4064C151.143 8.44429 151.174 8.47637 151.211 8.50013C151.249 8.52389 151.291 8.53867 151.335 8.54333L151.371 8.57953C151.759 8.94153 152.158 9.30353 152.561 9.66553C152.658 9.7591 152.771 9.83397 152.895 9.88634C152.955 9.90882 153.021 9.91463 153.085 9.90317C153.149 9.89171 153.208 9.8634 153.257 9.82119C153.431 9.65105 153.33 9.3904 153.221 9.19492Z" fill="#FF725E"/>
<path d="M153.946 10.538C153.353 9.71738 152.581 9.04072 151.69 8.55819C150.798 8.07565 149.809 7.79964 148.797 7.75059C147.607 7.68905 147.106 7.91711 146.258 8.11259C145.391 8.28751 144.614 8.76178 144.064 9.45199C143.388 10.2682 142.93 11.2421 142.733 12.2828C142.544 13.3486 142.454 14.4296 142.464 15.5119C142.476 16.601 142.788 17.6658 143.367 18.5889L146.102 19.1608C147.618 19.2658 149.852 21.2315 151.342 20.9346C152.833 20.6378 154.244 18.2595 154.741 16.7608C155.375 14.7662 155.216 12.2141 153.946 10.538Z" fill="#263238"/>
<path d="M145.892 24.0406C145.942 23.0777 146.018 21.8686 146.018 21.8686C146.018 21.8686 143.784 21.5428 143.266 18.6541C143.008 17.2061 143.034 14.8495 143.117 12.9164C143.19 11.1752 144.76 8.85474 146.914 8.93438L147.875 8.85474L151.502 10.4367C151.757 10.4593 151.994 10.5761 152.167 10.7643C152.34 10.9525 152.437 11.1984 152.438 11.4539L152.075 24.4461L149.667 27.9068L145.91 25.5104L145.892 24.0406Z" fill="#AE7461"/>
<path d="M147.6 18.14C147.583 17.9918 147.512 17.8551 147.4 17.7563C147.299 17.6629 147.17 17.6056 147.033 17.5931C146.896 17.5807 146.758 17.6139 146.642 17.6875C146.522 17.7742 146.426 17.8912 146.366 18.0267C146.305 18.1621 146.282 18.3111 146.298 18.4586C146.358 18.549 146.436 18.6257 146.528 18.6837C146.62 18.7417 146.723 18.7797 146.831 18.7952H146.932C147.103 18.7987 147.27 18.7394 147.4 18.6287C147.468 18.5673 147.521 18.4915 147.555 18.4069C147.59 18.3224 147.605 18.2312 147.6 18.14Z" fill="#6F4439"/>
<path d="M143.792 15.0811C143.792 15.1771 143.83 15.2692 143.898 15.3371C143.966 15.4049 144.058 15.4431 144.154 15.4431C144.247 15.4432 144.337 15.4076 144.405 15.3435C144.472 15.2795 144.512 15.192 144.517 15.0992C144.517 15.0032 144.479 14.9111 144.411 14.8432C144.343 14.7753 144.251 14.7372 144.154 14.7372C144.061 14.7371 143.972 14.7727 143.904 14.8367C143.837 14.9008 143.796 14.9883 143.792 15.0811Z" fill="#263238"/>
<path d="M143.737 13.9155C143.784 13.9626 144.064 13.749 144.463 13.7417C144.862 13.7345 145.159 13.9264 145.188 13.8793C145.217 13.8322 145.159 13.7707 145.028 13.6802C144.853 13.5627 144.645 13.5032 144.434 13.5101C144.225 13.5124 144.023 13.5823 143.857 13.7092C143.755 13.8033 143.716 13.8938 143.737 13.9155Z" fill="#263238"/>
<path d="M146.2 17.1336C145.987 17.0743 145.768 17.0403 145.547 17.0322C145.445 17.0322 145.348 17.0033 145.329 16.9345C145.319 16.8292 145.34 16.7232 145.391 16.6304L145.678 15.8449C145.946 15.1818 146.16 14.4977 146.316 13.7996C145.997 14.4412 145.729 15.1069 145.514 15.7906C145.416 16.0657 145.326 16.3263 145.239 16.5797C145.178 16.7046 145.163 16.8466 145.195 16.9815C145.21 17.0172 145.234 17.0489 145.263 17.074C145.293 17.0992 145.328 17.1171 145.366 17.1263C145.423 17.1398 145.481 17.1471 145.54 17.1481C145.759 17.1741 145.982 17.1692 146.2 17.1336Z" fill="#263238"/>
<path d="M146.018 21.8758C147.387 21.8691 148.727 21.4831 149.888 20.7609C149.888 20.7609 148.891 22.7917 145.979 22.5709L146.018 21.8758Z" fill="#6F4439"/>
<path d="M147.386 17.387C147.32 17.387 147.328 17.8214 146.961 18.1363C146.595 18.4512 146.131 18.4114 146.127 18.473C146.124 18.5345 146.232 18.5562 146.428 18.5562C146.683 18.5547 146.93 18.4637 147.125 18.2992C147.312 18.1419 147.43 17.9166 147.451 17.6729C147.466 17.4919 147.418 17.387 147.386 17.387Z" fill="#263238"/>
<path d="M143.792 13.1155C143.861 13.2132 144.154 13.1408 144.517 13.1625C144.88 13.1842 145.173 13.2747 145.242 13.1842C145.311 13.0937 145.242 13.0467 145.112 12.9525C144.94 12.8306 144.735 12.7626 144.524 12.7571C144.316 12.7446 144.108 12.7924 143.926 12.8946C143.821 12.9779 143.792 13.0684 143.792 13.1155Z" fill="#263238"/>
<path d="M148.285 15.1607C148.285 15.2567 148.247 15.3488 148.179 15.4167C148.111 15.4846 148.019 15.5227 147.922 15.5227C147.827 15.5277 147.733 15.4947 147.662 15.4309C147.59 15.3672 147.547 15.2778 147.542 15.1824C147.542 15.0864 147.58 14.9944 147.648 14.9265C147.716 14.8586 147.808 14.8204 147.904 14.8204C148 14.8155 148.094 14.8485 148.165 14.9122C148.236 14.976 148.279 15.0653 148.285 15.1607Z" fill="#263238"/>
<path d="M149.159 13.948C149.112 13.9951 148.833 13.7815 148.434 13.7779C148.035 13.7742 147.738 13.9661 147.708 13.9154C147.679 13.8647 147.738 13.8068 147.868 13.7163C148.042 13.5989 148.249 13.5393 148.459 13.5462C148.667 13.5478 148.87 13.6163 149.036 13.7417C149.141 13.8394 149.181 13.9263 149.159 13.948Z" fill="#263238"/>
<path d="M148.963 12.6593C148.884 12.7498 148.575 12.6593 148.202 12.6376C147.828 12.6159 147.516 12.6883 147.444 12.5905C147.371 12.4928 147.466 12.4566 147.603 12.3697C147.793 12.267 148.008 12.2193 148.223 12.2321C148.439 12.239 148.647 12.3068 148.826 12.4276C148.956 12.5217 149 12.6159 148.963 12.6593Z" fill="#263238"/>
<path d="M151.77 16.2938C151.77 16.0802 152.006 15.5698 152.216 15.5263C152.786 15.4286 153.816 15.4539 153.852 16.8983C153.906 18.8748 151.908 18.5201 151.901 18.4621C151.894 18.4042 151.77 17.0395 151.77 16.2938Z" fill="#AE7461"/>
<path d="M152.42 17.7273C152.42 17.7273 152.452 17.749 152.514 17.7744C152.597 17.8058 152.688 17.8058 152.771 17.7744C152.895 17.6884 152.993 17.5716 153.057 17.4356C153.12 17.2996 153.147 17.1492 153.134 16.9997C153.135 16.8295 153.098 16.6612 153.025 16.5074C153.004 16.4463 152.969 16.3911 152.922 16.3464C152.876 16.3017 152.819 16.2688 152.757 16.2504C152.717 16.2404 152.675 16.2451 152.638 16.2638C152.601 16.2824 152.573 16.3136 152.557 16.3517C152.532 16.406 152.557 16.4458 152.536 16.4494C152.514 16.4531 152.492 16.4169 152.507 16.3372C152.516 16.2883 152.542 16.2439 152.579 16.2105C152.634 16.1678 152.702 16.1471 152.771 16.1526C152.852 16.1675 152.927 16.2026 152.991 16.2545C153.054 16.3064 153.104 16.3734 153.134 16.4494C153.223 16.6192 153.269 16.8081 153.268 16.9997C153.283 17.175 153.245 17.3507 153.16 17.5047C153.075 17.6586 152.946 17.784 152.789 17.8649C152.737 17.8827 152.68 17.888 152.625 17.8805C152.569 17.8729 152.517 17.8527 152.47 17.8214C152.423 17.7744 152.412 17.7309 152.42 17.7273Z" fill="#6F4439"/>
<path d="M152.289 15.5373L151.77 16.0368C149.674 13.8902 145.605 8.55789 145.844 8.87645C146.846 8.54272 147.916 8.46433 148.956 8.6484C150.555 8.97782 153.587 9.89006 153.471 11.7869C153.331 13.1032 152.929 14.3783 152.289 15.5373Z" fill="#263238"/>
<path d="M155.172 15.2006C155.169 15.161 155.161 15.1219 155.147 15.0848C155.114 14.9766 155.073 14.8712 155.023 14.7698C154.832 14.397 154.561 14.0707 154.229 13.8141C153.738 13.4359 153.184 13.1456 152.594 12.9562C151.941 12.7209 151.201 12.5254 150.483 12.1888C149.803 11.8764 149.16 11.4877 148.568 11.0303C148.086 10.654 147.639 10.2347 147.233 9.77783C146.96 9.46899 146.705 9.1451 146.468 8.80767L146.28 8.52893C146.26 8.4954 146.237 8.46388 146.211 8.43481C146.224 8.47146 146.241 8.50664 146.261 8.53979C146.301 8.60495 146.356 8.70631 146.436 8.82939C146.655 9.17685 146.897 9.50941 147.161 9.82489C147.568 10.2908 148.019 10.7174 148.506 11.0991C149.1 11.5667 149.748 11.9616 150.436 12.2756C151.13 12.5682 151.84 12.8244 152.561 13.0431C153.144 13.2246 153.692 13.5024 154.182 13.8648C154.51 14.1128 154.783 14.4259 154.984 14.7843C155.125 15.0449 155.161 15.2042 155.172 15.2006Z" fill="#455A64"/>
<path d="M154.588 15.4902C154.599 15.3427 154.578 15.1946 154.527 15.0558C154.386 14.6729 154.133 14.3411 153.801 14.1037C153.312 13.7639 152.76 13.5251 152.177 13.4015C151.476 13.2356 150.796 12.9928 150.149 12.6775C149.506 12.3564 148.905 11.9563 148.361 11.4865C147.917 11.1044 147.512 10.6787 147.154 10.2159C146.911 9.90159 146.688 9.57275 146.486 9.23122L146.33 8.95248C146.314 8.91757 146.293 8.88475 146.269 8.85474C146.278 8.8918 146.292 8.92723 146.312 8.95972L146.454 9.25294C146.641 9.60431 146.856 9.94075 147.096 10.2593C147.888 11.318 148.918 12.1771 150.102 12.768C150.756 13.0856 151.443 13.3285 152.151 13.492C152.725 13.6075 153.271 13.8338 153.758 14.158C154.083 14.3851 154.336 14.7021 154.483 15.0703C154.53 15.207 154.565 15.3475 154.588 15.4902Z" fill="#455A64"/>
<path d="M120.53 11.3778C118.94 12.8562 117.772 14.7303 117.147 16.8078C116.247 20.0911 116.762 29.4561 115.417 32.439C114.071 35.4219 107.801 46.5063 107.681 48.9244C107.561 51.3426 108.142 52.3055 109.494 54.6115C110.847 56.9174 113.756 60.494 115.979 60.5374C118.202 60.5809 118.844 58.4342 118.844 58.4342L115.032 50.9191L120.03 38.4808L123.482 24.7718L125.038 18.0133L120.53 11.3778Z" fill="#263238"/>
<path d="M111.42 49.2502C111.42 49.2502 110.107 51.386 111.257 53.2793C112.407 55.1726 115.714 60.722 117.495 60.0632C119.275 59.4043 120.033 58.3545 119.867 58.1337C119.7 57.9129 118.539 53.406 119.09 49.1634C119.642 44.9207 123.896 28.7466 124.875 24.9999C125.854 21.2532 126.362 14.0457 124.897 11.4357C123.432 8.8257 120.545 11.3778 120.545 11.3778C120.545 11.3778 122.626 18.759 122.199 22.2378C121.771 25.7166 111.42 49.2502 111.42 49.2502Z" fill="#E0E0E0"/>
<path d="M111.42 49.2503C111.42 49.2503 111.453 49.1924 111.507 49.0765C111.562 48.9607 111.645 48.7761 111.746 48.548C111.957 48.0774 112.261 47.3932 112.653 46.5063C113.437 44.718 114.572 42.1153 115.964 38.8283C117.357 35.5413 119.029 31.5883 120.744 27.0488C120.958 26.4805 121.176 25.9049 121.375 25.3148L121.687 24.4243L121.97 23.5085C122.069 23.1988 122.149 22.8832 122.209 22.5637C122.278 22.2409 122.319 21.9125 122.329 21.5826C122.345 20.9156 122.32 20.2483 122.253 19.5844C121.935 16.8 121.391 14.0459 120.628 11.3489L120.599 11.4575C121.039 11.0866 121.536 10.7895 122.072 10.5778C122.33 10.4453 122.614 10.3699 122.904 10.3567C123.194 10.3436 123.484 10.3929 123.754 10.5015C124.023 10.61 124.266 10.7751 124.466 10.9857C124.665 11.1963 124.817 11.4473 124.911 11.7217C125.16 12.2748 125.335 12.8576 125.434 13.4557C125.633 14.6883 125.723 15.936 125.702 17.1843C125.69 18.4618 125.611 19.7377 125.466 21.007C125.365 21.9482 125.22 22.8786 125.038 23.7908C124.857 24.7031 124.603 25.6008 124.375 26.495C123.91 28.2832 123.455 30.045 123.007 31.7802C122.122 35.2445 121.281 38.593 120.527 41.7931C120.164 43.3931 119.801 44.957 119.479 46.4991C119.132 47.9751 118.927 49.4805 118.866 50.9951C118.835 52.4109 118.926 53.8267 119.138 55.2269C119.237 55.9002 119.358 56.5554 119.5 57.1926C119.567 57.5138 119.658 57.8296 119.772 58.1374C119.848 58.2387 119.772 58.3691 119.689 58.4994C119.605 58.6299 119.508 58.7513 119.399 58.8614C118.964 59.2737 118.459 59.6058 117.908 59.8424C117.665 59.9837 117.391 60.0621 117.11 60.0705C116.838 60.0379 116.577 59.9425 116.349 59.7917C115.899 59.4941 115.488 59.1414 115.127 58.7419C114.764 58.3582 114.445 57.9636 114.144 57.5763C113.132 56.2239 112.194 54.8185 111.333 53.3662C111.004 52.8494 110.824 52.2518 110.814 51.6395C110.808 51.1901 110.869 50.7423 110.996 50.311C111.076 50.0463 111.174 49.7875 111.29 49.5363C111.369 49.3661 111.413 49.2792 111.413 49.2792C111.214 49.5958 111.061 49.9381 110.956 50.2965C110.818 50.7308 110.748 51.1838 110.749 51.6395C110.753 52.2653 110.93 52.8778 111.261 53.4097C112.114 54.8629 113.046 56.2684 114.053 57.6197C114.354 58.0107 114.677 58.4125 115.036 58.7998C115.403 59.2128 115.821 59.5777 116.28 59.8858C116.526 60.0506 116.808 60.1547 117.103 60.1899C117.18 60.1953 117.258 60.1953 117.335 60.1899C117.412 60.1759 117.487 60.1553 117.56 60.1284C117.698 60.0741 117.836 60.0234 117.973 59.9582C118.542 59.7163 119.062 59.3755 119.511 58.9519C119.627 58.842 119.732 58.7207 119.823 58.5899C119.87 58.5185 119.909 58.442 119.939 58.3618C119.957 58.3144 119.964 58.2639 119.961 58.2134C119.959 58.1813 119.949 58.1501 119.932 58.1229L119.91 58.0722C119.806 57.775 119.722 57.4715 119.656 57.1636C119.515 56.5337 119.395 55.8785 119.294 55.2124C119.091 53.8211 119.004 52.4153 119.036 51.0096C119.101 49.5055 119.308 48.011 119.656 46.5462C119.972 45.0221 120.334 43.4619 120.712 41.8619C121.473 38.6654 122.315 35.3169 123.203 31.8526L124.57 26.5493C124.799 25.6551 125.056 24.7574 125.238 23.8343C125.419 22.9112 125.568 21.9772 125.669 21.0288C125.814 19.7522 125.893 18.469 125.905 17.1843C125.926 15.9238 125.835 14.664 125.633 13.4195C125.53 12.8029 125.348 12.2019 125.093 11.6312C124.987 11.3336 124.819 11.0617 124.6 10.8337C124.381 10.6057 124.116 10.4267 123.822 10.3086C123.529 10.1906 123.214 10.1361 122.897 10.1488C122.581 10.1615 122.271 10.2411 121.988 10.3823C121.429 10.6043 120.91 10.9148 120.45 11.3018L120.403 11.3417V11.4068C121.165 14.0908 121.709 16.8315 122.032 19.6025C122.507 22.3066 121.328 24.7176 120.548 26.9873C118.848 31.5268 117.183 35.4834 115.816 38.7776C114.448 42.0718 113.324 44.6746 112.552 46.4774C112.189 47.3715 111.881 48.0593 111.678 48.5335C111.58 48.7652 111.507 48.9426 111.456 49.0657C111.406 49.1887 111.42 49.2503 111.42 49.2503Z" fill="#263238"/>
<path d="M19.6435 66.391L212.677 66.391V39.4437L19.6435 39.4437V66.391Z" fill="#FF725E"/>
<g opacity="0.4">
<path d="M19.6437 66.391L212.677 66.391V39.4437L19.6437 39.4437V66.391Z" fill="black"/>
</g>
<path d="M159.916 12.5797C158.327 14.0592 157.159 15.9329 156.532 18.0097C155.636 21.2931 156.148 30.658 154.802 33.6445C153.457 36.631 147.186 47.7082 147.067 50.1264C146.947 52.5445 147.527 53.5111 148.88 55.8134C150.233 58.1157 153.145 61.6959 155.368 61.7393C157.591 61.7828 158.229 59.6361 158.229 59.6361L154.418 52.1246L159.415 39.6971L162.872 25.9846L164.427 19.226L159.916 12.5797Z" fill="#263238"/>
<path d="M150.809 50.4521C150.809 50.4521 149.496 52.5879 150.642 54.4812C151.788 56.3745 155.1 61.9239 156.884 61.2651C158.668 60.6062 159.423 59.5564 159.256 59.3392C159.089 59.122 157.928 54.6079 158.476 50.3653C159.024 46.1226 163.285 29.9485 164.279 26.2054C165.272 22.4623 165.766 15.2476 164.3 12.6412C162.835 10.0348 159.948 12.5797 159.948 12.5797C159.948 12.5797 162.034 19.9645 161.602 23.4397C161.171 26.9149 150.809 50.4521 150.809 50.4521Z" fill="#E0E0E0"/>
<path d="M150.809 50.4521L150.896 50.2784C150.951 50.1517 151.031 49.9779 151.136 49.7535C151.342 49.2792 151.647 48.5951 152.042 47.7082C152.826 45.9235 153.961 43.3171 155.354 40.0301C156.746 36.7432 158.414 32.7901 160.13 28.2507C160.347 27.6859 160.561 27.1067 160.765 26.5167C160.866 26.2235 160.971 25.9266 161.073 25.6262L161.356 24.7139C161.456 24.4034 161.536 24.0865 161.595 23.7655C161.666 23.4442 161.706 23.1169 161.715 22.7881C161.73 22.12 161.706 21.4515 161.642 20.7862C161.322 18.0009 160.779 15.2456 160.017 12.5471L159.985 12.6521C160.425 12.2804 160.924 11.9832 161.461 11.7724C161.72 11.6406 162.004 11.5659 162.294 11.5532C162.584 11.5406 162.874 11.5904 163.143 11.6992C163.412 11.808 163.655 11.9733 163.855 12.184C164.054 12.3946 164.206 12.6456 164.301 12.92C164.549 13.4728 164.723 14.0558 164.819 14.6539C165.02 15.8851 165.11 17.1317 165.087 18.3789C165.076 19.6563 164.999 20.9323 164.855 22.2016C164.754 23.1428 164.609 24.0732 164.424 24.9854C164.239 25.8977 163.992 26.7954 163.76 27.6896C163.301 29.4803 162.845 31.242 162.393 32.9748C161.508 36.4427 160.67 39.7876 159.916 42.9913C159.553 44.5913 159.191 46.1516 158.868 47.6792C158.52 49.1562 158.314 50.6629 158.251 52.1789C158.224 53.5933 158.315 55.0076 158.523 56.407C158.625 57.0803 158.748 57.7392 158.886 58.3727C158.955 58.6947 159.046 59.0116 159.158 59.3211C159.238 59.4189 159.158 59.5528 159.078 59.6831C158.994 59.8136 158.897 59.935 158.788 60.0451C158.353 60.4568 157.848 60.7889 157.297 61.0261C157.053 61.167 156.778 61.2465 156.496 61.2578C156.224 61.2224 155.964 61.1259 155.734 60.9755C155.284 60.6798 154.875 60.3269 154.516 59.9257C154.153 59.5419 153.83 59.1474 153.529 58.76C152.52 57.4049 151.585 55.9958 150.73 54.5391C150.399 54.0225 150.219 53.425 150.207 52.8124C150.2 52.3627 150.263 51.9146 150.392 51.4838C150.469 51.2181 150.567 50.959 150.686 50.7091C150.762 50.539 150.809 50.4521 150.809 50.4521C150.608 50.7691 150.453 51.1127 150.349 51.473C150.212 51.9062 150.143 52.3581 150.146 52.8124C150.147 53.4385 150.324 54.0517 150.657 54.5825C151.506 56.0462 152.436 57.4614 153.442 58.8216C153.743 59.2125 154.066 59.6143 154.429 60.0017C154.794 60.4165 155.212 60.7816 155.673 61.0877C155.919 61.2524 156.201 61.3566 156.496 61.3918C156.573 61.3989 156.651 61.3989 156.728 61.3918C156.803 61.3773 156.877 61.3567 156.949 61.3302C157.087 61.2759 157.229 61.2252 157.363 61.1601C157.931 60.919 158.452 60.5782 158.9 60.1537C159.018 60.0456 159.123 59.9241 159.212 59.7917C159.262 59.7216 159.301 59.6448 159.328 59.5637C159.345 59.5174 159.353 59.4681 159.35 59.4189C159.348 59.3861 159.339 59.3541 159.325 59.3247L159.303 59.2777C159.2 58.9791 159.115 58.6744 159.049 58.3654C158.904 57.7356 158.783 57.0852 158.686 56.4143C158.48 55.0232 158.393 53.6172 158.425 52.2114C158.491 50.7073 158.7 49.2128 159.049 47.748C159.361 46.224 159.724 44.6637 160.104 43.0637C160.862 39.8672 161.704 36.5187 162.596 33.0544C163.043 31.324 163.499 29.5635 163.963 27.7728C164.192 26.8787 164.449 25.9845 164.631 25.0578C164.812 24.1311 164.961 23.2008 165.062 22.2559C165.209 20.9795 165.287 19.6962 165.298 18.4115C165.321 17.1498 165.23 15.8885 165.026 14.6431C164.924 14.0261 164.743 13.4249 164.485 12.8548C164.244 12.264 163.784 11.7883 163.202 11.5263C162.609 11.3229 161.96 11.3527 161.388 11.6095C160.83 11.8283 160.311 12.1378 159.854 12.5254L159.803 12.5652L159.822 12.6304C160.583 15.3144 161.128 18.0551 161.45 20.826C161.929 23.5302 160.746 25.9411 159.97 28.2108C158.266 32.7503 156.601 36.707 155.237 40.0012L151.973 47.7009L151.096 49.7607C151.002 49.9888 150.925 50.1661 150.875 50.2928C150.85 50.3449 150.829 50.3981 150.809 50.4521Z" fill="#263238"/>
<path d="M222.055 40.1098C222.055 40.1098 221.261 32.667 220.906 31.7259C220.55 30.7847 219.136 28.8045 219.136 28.8045V20.4206C220.198 19.3816 220.376 18.5346 220.376 18.5346C220.572 18.0314 207.813 16.6522 207.813 16.6522C207.813 16.6522 178.709 7.32343 172.693 5.53515C166.676 3.74687 139.607 1.19115 139.607 1.19115C119.348 -1.37905 105.545 0.30425 91.205 5.33243C82.8383 8.26825 48.6679 26.3284 48.6679 26.3284L45.2153 26.6108C45.2153 26.6108 34.5638 28.1167 32.1593 28.3991C28.2062 28.866 13.9752 34.3359 8.48803 37.8111C5.90538 39.4634 3.57072 41.4733 1.55384 43.7804C0.606856 44.8908 0.0919127 46.3043 0.103174 47.7624V58.9084C-0.161573 62.8651 9.74648 70.6843 9.74648 70.6843H21.9357V63.9511H22.2984C22.2585 63.4153 22.2331 62.8651 22.2331 62.3293C22.2331 51.2485 30.52 42.2673 40.7291 42.2673C50.9382 42.2673 59.2251 51.2485 59.2251 62.3293C59.2251 62.8759 59.1997 63.4153 59.1598 63.9511L59.0873 70.735H164.986L165.026 61.5945C165.389 50.8575 173.523 42.2673 183.522 42.2673C193.521 42.2673 201.655 50.8575 202.018 61.5945L202.021 68.6571C202.021 68.6571 215.6 66.5973 217.279 65.1855C218.958 63.7737 225.87 54.3508 225.87 51.9037C225.87 49.4566 222.055 40.1098 222.055 40.1098ZM120.581 25.2424L78.5117 28.4244L72.0055 19.0631C72.0055 19.0631 88.3037 9.19134 102.629 6.20846C117.161 3.18576 124.509 4.00388 124.509 4.00388L120.581 25.2424ZM129.945 25.2424C129.945 25.2424 131.269 5.10436 131.795 4.39846C132.321 3.69256 170.807 8.90536 171.732 9.46646C172.656 10.0276 177.418 19.6025 177.534 20.0296L129.945 25.2424Z" fill="#FF725E"/>
<path d="M21.3156 51.8857L21.4135 51.7191C21.4788 51.6069 21.5658 51.4368 21.7 51.2232C21.9502 50.7852 22.3528 50.1553 22.904 49.3625C23.5893 48.401 24.3342 47.4834 25.1344 46.6149C26.1933 45.4501 27.3684 44.3961 28.6414 43.4692C30.178 42.3235 31.8803 41.4178 33.6897 40.7831C35.7944 40.0809 37.9986 39.7215 40.2177 39.7188C42.7336 39.6557 45.2463 39.9383 47.685 40.5587C49.0069 40.8861 50.2961 41.3332 51.5366 41.8945C52.8499 42.4618 54.0866 43.1915 55.2176 44.0665L55.2539 44.0918H55.301L83.3533 41.1451L109.422 38.3794L110.169 38.2998L110.916 38.26L112.392 38.184L115.293 38.05L120.839 37.8364C124.418 37.7206 127.751 37.6482 130.794 37.6011C136.883 37.507 141.812 37.4962 145.217 37.4781L149.137 37.4527H150.157H150.519C150.519 37.4527 150.4 37.4527 150.157 37.4527H149.137L145.217 37.431C141.812 37.431 136.876 37.4093 130.794 37.4781C127.747 37.5143 124.414 37.5794 120.835 37.6844C119.043 37.7375 117.194 37.8051 115.286 37.8871L112.385 38.0174L110.905 38.0898L110.158 38.1297L109.407 38.2093L83.3352 40.9533L55.2793 43.9289L55.3554 43.9506C54.2064 43.0664 52.9516 42.3282 51.62 41.7533C50.3681 41.1923 49.0681 40.7453 47.7358 40.4175C45.2834 39.7983 42.7574 39.5182 40.2286 39.5849C37.9902 39.5905 35.7674 39.9573 33.6462 40.6709C31.8238 41.3193 30.1116 42.2422 28.5689 43.4076C27.2937 44.3454 26.1185 45.4117 25.0619 46.5896C24.2647 47.466 23.5257 48.3935 22.8496 49.3661C22.3056 50.1661 21.9103 50.8141 21.6673 51.2485C21.4244 51.6829 21.3156 51.8857 21.3156 51.8857Z" fill="#263238"/>
<g opacity="0.2">
<path d="M0.099512 51.0385L7.91135 48.0701L8.84341 52.5915L21.3155 51.8856C21.3155 51.8856 26.8063 40.7143 38.0344 39.7333C47.6487 38.8898 55.301 43.9832 55.301 43.9832L110.238 38.1912C110.238 38.1912 138.105 37.0617 148.854 37.2029C159.604 37.3441 169.077 45.6628 169.077 45.6628C169.077 45.6628 172.247 40.765 183.489 40.6528C194.732 40.5405 199.417 47.5706 199.417 47.5706C207.464 46.4122 215.042 43.0841 221.333 37.945L221.881 38.412C221.993 39.4147 222.07 40.1242 222.07 40.1242C222.07 40.1242 225.885 49.4493 225.885 51.9001C225.885 54.3508 218.976 63.7701 217.293 65.1819C215.611 66.5937 202.021 68.6571 202.021 68.6571L202.047 61.6053C201.684 50.8684 193.55 42.2781 183.551 42.2781C173.552 42.2781 165.417 50.8684 165.055 61.6053L165.015 70.7458H59.1163L59.1888 63.9619C59.2287 63.4262 59.2541 62.8759 59.2541 62.3402C59.2541 51.2593 50.9708 42.2781 40.7581 42.2781C30.5454 42.2781 22.2621 51.2593 22.2621 62.3402C22.2621 62.8868 22.2875 63.4262 22.3274 63.9619H21.9647V70.7458H9.74282C9.74282 70.7458 -0.165235 62.9266 0.099512 58.9699V51.0385Z" fill="black"/>
</g>
<path d="M188.53 17.2531L178.122 9.28914C177.74 8.99427 177.287 8.80454 176.809 8.73891C154.708 5.65467 137.605 2.9469 128.694 2.61386C99.249 0.894362 79.5272 13.4956 76.7165 14.9219C73.9058 16.3481 61.9306 23.4904 59.2251 26.2633C57.8723 27.6498 58.0791 28.8697 58.6267 29.7421C58.9067 30.1789 59.2992 30.5327 59.7629 30.7664C60.2267 31.0001 60.7449 31.1052 61.2633 31.0707L125.753 27.2624L178.644 21.0433L187.95 19.722C189.103 19.5591 189.488 17.9771 188.53 17.2531ZM120.581 25.2425L78.5117 28.4245L72.0055 19.0631C72.0055 19.0631 88.3037 9.1914 102.629 6.20852C117.161 3.18582 124.509 4.00394 124.509 4.00394L120.581 25.2425ZM129.945 25.2425C129.945 25.2425 131.269 5.10442 131.795 4.39852C132.321 3.69262 170.807 8.90542 171.732 9.46652C172.656 10.0276 177.418 19.6025 177.534 20.0297L129.945 25.2425Z" fill="#263238"/>
<path d="M162.868 8.00399L163.202 22.0604H161.218V7.76868L162.868 8.00399Z" fill="#263238"/>
<path d="M70.3916 18.5563C70.3916 18.5563 70.3553 18.6251 70.2937 18.7699L70.0217 19.407C69.9056 19.6893 69.7424 20.0332 69.5901 20.4568L69.0497 21.9337C67.9671 25.2035 67.2102 28.572 66.7903 31.9901C66.1367 37.3059 65.9789 42.6709 66.3188 48.0158C66.4929 51.1073 66.8084 54.387 67.3017 57.8152C67.5483 59.531 67.8348 61.2831 68.1938 63.0642C68.2724 63.5188 68.3863 63.9666 68.5347 64.4036C68.708 64.832 68.9103 65.248 69.1404 65.6489C69.5956 66.4556 70.0919 67.2385 70.6273 67.9946L70.6563 68.0381H70.7071L114.416 67.1874L138.276 66.6045C142.069 66.5249 145.757 66.4453 149.319 66.4199C149.761 66.4199 150.207 66.4199 150.646 66.4199C151.085 66.4199 151.524 66.4199 151.973 66.4199C152.857 66.3431 153.715 66.0855 154.494 65.6633C155.267 65.2417 155.973 64.7087 156.59 64.0814C157.212 63.4669 157.757 62.7802 158.215 62.0361C162.288 56.0631 165.965 50.5426 169.186 45.6194C170.789 43.1505 172.29 40.8374 173.639 38.6726C174.988 36.5079 176.218 34.5132 177.266 32.6598C177.774 31.7898 178.231 30.8904 178.633 29.9665C178.72 29.7421 178.807 29.5249 178.891 29.3077C178.974 29.0905 179.021 28.866 179.086 28.6524C179.152 28.4389 179.221 28.2253 179.257 28.0117C179.293 27.7981 179.329 27.5846 179.366 27.3782C179.72 25.089 179.258 22.7484 178.06 20.7645C177.909 20.5093 177.737 20.2672 177.545 20.0405L177.672 20.2215C177.759 20.3409 177.882 20.5255 178.035 20.7789C179.201 22.7623 179.642 25.0884 179.282 27.3601C179.246 27.5665 179.21 27.7728 179.17 27.9864C179.13 28.1999 179.057 28.4027 178.999 28.6199C178.941 28.8371 178.887 29.0543 178.804 29.2679C178.72 29.4814 178.633 29.6986 178.546 29.9194C178.14 30.8368 177.681 31.73 177.172 32.5946C176.131 34.4372 174.898 36.4318 173.545 38.5894C172.192 40.7469 170.683 43.0528 169.077 45.518C165.845 50.434 162.157 55.9436 158.077 61.9094C157.185 63.3821 155.931 64.6023 154.432 65.4534C153.676 65.8588 152.844 66.1052 151.988 66.1774C151.56 66.1991 151.121 66.1991 150.679 66.1774C150.236 66.1556 149.79 66.1774 149.344 66.1774C145.783 66.2027 142.091 66.2787 138.297 66.3548L114.416 66.9484L70.7035 67.8245L70.7833 67.8679C70.2538 67.1113 69.7497 66.3366 69.3036 65.5439C69.0824 65.1467 68.8873 64.7356 68.7197 64.3131C68.5736 63.8886 68.4632 63.4527 68.3897 63.0099C68.027 61.2324 67.7369 59.484 67.4866 57.7717C66.9898 54.3508 66.667 51.0747 66.4893 47.9977C66.1381 42.6626 66.2801 37.3065 66.9136 31.9973C67.3208 28.5888 68.0555 25.2272 69.1078 21.9591C69.3036 21.4016 69.4704 20.9093 69.63 20.4821C69.7896 20.055 69.9383 19.7074 70.0507 19.4214C70.1631 19.1355 70.2502 18.9291 70.3082 18.7807C70.3662 18.6323 70.3916 18.5563 70.3916 18.5563Z" fill="#263238"/>
<path d="M124.898 18C124.848 18.1272 124.811 18.2595 124.789 18.3946C124.728 18.6588 124.652 19.0534 124.572 19.5602C124.416 20.5811 124.253 22.0616 124.148 23.9042C123.915 27.5821 124.01 32.6755 124.079 38.2901C124.148 43.9047 124.278 48.9944 124.376 52.676C124.43 54.486 124.474 55.981 124.503 57.02C124.525 57.5195 124.539 57.9141 124.554 58.2037C124.554 58.3304 124.554 58.4282 124.572 58.515C124.59 58.6019 124.572 58.62 124.572 58.6164C124.575 58.5815 124.575 58.5463 124.572 58.5114C124.572 58.4282 124.572 58.3268 124.572 58.2037C124.572 57.9141 124.572 57.5159 124.572 57.02C124.572 55.9666 124.536 54.486 124.51 52.6579C124.452 48.9582 124.369 43.883 124.278 38.2756C124.187 32.6682 124.093 27.5749 124.278 23.9006C124.362 22.0653 124.503 20.5847 124.641 19.5566C124.706 19.0498 124.768 18.6552 124.815 18.3873C124.837 18.2679 124.851 18.1665 124.866 18.0869C124.881 18.0596 124.891 18.0303 124.898 18Z" fill="#263238"/>
<g opacity="0.2">
<path d="M157.595 53.0911C157.595 53.0911 137.938 61.8914 134.384 62.7203C130.83 63.5493 73.2131 64.0235 73.2131 64.0235L72.0236 61.2868L132.136 60.8633C132.136 60.8633 156.267 51.2377 157.595 53.0911Z" fill="black"/>
</g>
<path d="M169.062 45.6484C169.099 45.6192 169.133 45.5865 169.164 45.5507C169.229 45.4819 169.334 45.3841 169.469 45.2538C169.87 44.8948 170.293 44.5599 170.734 44.2511C171.43 43.7811 172.157 43.359 172.91 42.9877C173.916 42.5184 174.957 42.1251 176.022 41.8112C177.31 41.4417 178.624 41.1718 179.953 41.0039C180.679 40.8881 181.404 40.8555 182.176 40.7867C182.561 40.7505 182.949 40.7686 183.344 40.7578C183.739 40.7469 184.135 40.7288 184.541 40.7578C188.077 40.9259 191.529 41.8952 194.634 43.5922C196.038 44.3366 197.353 45.2364 198.554 46.2747L198.649 46.3543L198.718 46.2529C200.593 43.4981 202.344 40.8917 203.846 38.4953C205.347 36.0988 206.638 33.9232 207.679 32.0879C208.72 30.2525 209.525 28.7683 210.08 27.7439L210.711 26.5638C210.776 26.4371 210.827 26.3357 210.867 26.2524C210.888 26.2199 210.904 26.1845 210.914 26.1475C210.889 26.1762 210.867 26.2078 210.849 26.2416C210.805 26.3212 210.747 26.419 210.675 26.542C210.515 26.8172 210.312 27.2045 210.015 27.7004C209.427 28.7213 208.593 30.1838 207.556 32.0046C206.519 33.8255 205.209 35.9866 203.686 38.3758C202.163 40.765 200.422 43.3569 198.536 46.1118L198.699 46.0937C197.491 45.045 196.165 44.1377 194.75 43.3895C191.617 41.6749 188.132 40.7014 184.563 40.5442C184.157 40.5044 183.75 40.5442 183.355 40.5442C182.96 40.5442 182.564 40.5442 182.18 40.5804C181.411 40.6528 180.66 40.689 179.946 40.8121C178.609 40.9863 177.288 41.2672 175.997 41.6519C174.926 41.9764 173.882 42.383 172.874 42.8682C172.117 43.2507 171.39 43.6887 170.698 44.1787C170.259 44.4968 169.844 44.8451 169.454 45.2212C169.323 45.3588 169.226 45.4602 169.164 45.5362C169.125 45.5692 169.091 45.6069 169.062 45.6484Z" fill="#263238"/>
<path d="M219.357 56.8451C219.431 56.6259 219.486 56.4006 219.52 56.1718C219.611 55.7374 219.73 55.1075 219.883 54.3219C220.162 52.7581 220.51 50.5897 220.844 48.186C221.178 45.7824 221.431 43.5959 221.587 42.0139C221.667 41.2211 221.722 40.5659 221.754 40.1351C221.783 39.9058 221.791 39.6745 221.78 39.4437C221.723 39.6671 221.686 39.8947 221.667 40.1243C221.605 40.6094 221.526 41.2392 221.428 41.9922C221.232 43.5705 220.953 45.7498 220.619 48.1462C220.285 50.5426 219.966 52.7183 219.727 54.3002L219.448 56.1645C219.4 56.3887 219.37 56.6162 219.357 56.8451Z" fill="#263238"/>
<path d="M201.651 58.4234C201.726 58.4332 201.802 58.4332 201.876 58.4234H202.544C203.102 58.4234 203.915 58.4053 204.919 58.3691C206.925 58.3003 209.699 58.1302 212.745 57.808C215.792 57.4858 218.548 57.084 220.528 56.722C221.518 56.5482 222.316 56.3926 222.867 56.2767L223.502 56.1392C223.577 56.1255 223.65 56.1036 223.72 56.074C223.644 56.0613 223.567 56.0613 223.491 56.074L222.853 56.1718L220.503 56.5338C218.519 56.8415 215.77 57.2252 212.724 57.5474C209.677 57.8695 206.921 58.065 204.912 58.1809L202.54 58.3076L201.894 58.351C201.81 58.3629 201.728 58.3873 201.651 58.4234Z" fill="#263238"/>
<path d="M7.91135 48.0702C7.91135 48.0702 10.3303 42.0718 10.2759 41.8691C9.91327 40.7831 8.5025 37.8473 8.5025 37.8473C7.62476 38.3766 6.77723 38.9543 5.96383 39.5776C4.25228 40.8746 2.67308 42.3369 1.24916 43.9434C0.492595 44.8452 0.0801965 45.9853 0.0850025 47.1615V52.1861L7.91135 48.0702Z" fill="#EBEBEB"/>
<path d="M60.8534 20.283C60.8063 20.3301 61.3539 21.007 61.9849 21.9012C62.616 22.7953 63.102 23.5229 63.1564 23.4867C63.2108 23.4505 62.7937 22.6469 62.1627 21.7564C61.5316 20.8658 60.8969 20.2396 60.8534 20.283Z" fill="#263238"/>
<path d="M219.136 20.4205C219.136 20.4205 200.705 22.0242 200.908 22.4586C201.111 22.893 219.136 28.8045 219.136 28.8045V20.4205Z" fill="#EBEBEB"/>
<path d="M219.194 29.0434C219.255 29.0434 219.306 27.1212 219.306 24.7501C219.306 22.379 219.259 20.4568 219.197 20.4568C219.136 20.4568 219.085 22.379 219.081 24.7501C219.078 27.1212 219.132 29.0434 219.194 29.0434Z" fill="#263238"/>
<path d="M73.195 64.0054C73.195 64.0054 73.2712 64.0054 73.4162 64.0054H74.0582L76.5352 63.9728L85.6345 63.8171L115.663 63.2126L132.186 62.8651L133.137 62.8433C133.452 62.8454 133.766 62.8297 134.079 62.7963C134.691 62.6712 135.283 62.4642 135.838 62.1809C136.952 61.6994 138.04 61.2505 139.102 60.8161C141.213 59.9582 143.19 59.1835 144.992 58.4776C148.601 57.0658 151.52 55.9038 153.508 55.0531C154.508 54.6296 155.281 54.2929 155.8 54.0576L156.391 53.7861C156.525 53.7246 156.59 53.6884 156.59 53.6884C156.59 53.6884 156.518 53.7101 156.383 53.7644L155.781 54.0105C155.245 54.235 154.472 54.5572 153.475 54.9662C151.473 55.788 148.554 56.9283 144.938 58.3183C143.124 59.017 141.151 59.7663 139.037 60.6315C137.982 61.0623 136.89 61.5076 135.773 61.9854C135.232 62.2607 134.656 62.4617 134.061 62.5827C133.755 62.6157 133.448 62.6302 133.14 62.6261L132.194 62.6442L115.663 62.9881L85.6345 63.6651L76.5352 63.8968L74.0618 63.9692L73.4162 63.9981C73.3424 63.9966 73.2686 63.999 73.195 64.0054Z" fill="#263238"/>
<path d="M78.062 18.9146C78.8562 20.6486 79.723 23.208 79.5634 25.8614C79.5393 26.6701 79.2089 27.4395 78.6388 28.0145C78.0688 28.5896 77.3015 28.9275 76.4916 28.9601L68.9119 29.0181C68.3533 29.0186 67.8138 28.8148 67.3955 28.4453C66.9772 28.0758 66.709 27.5661 66.6416 27.0126C66.5888 26.5924 66.6554 26.166 66.8338 25.7818C67.6208 24.0731 68.2845 24.3989 68.2845 24.3989C68.2845 24.3989 70.5802 19.3563 74.0871 17.4413C74.4427 17.2638 74.8311 17.1611 75.2281 17.1396C75.6251 17.1182 76.0223 17.1784 76.395 17.3165C76.7678 17.4547 77.1081 17.6678 77.3948 17.9427C77.6816 18.2177 77.9087 18.5485 78.062 18.9146Z" fill="#FF725E"/>
<path d="M70.2175 29.0072C70.2175 29.0398 69.9165 28.9493 69.5284 28.6452C69.001 28.2489 68.6187 27.6905 68.4404 27.056C68.3038 26.4151 68.2525 25.7591 68.2881 25.1048C68.2664 24.8364 68.2884 24.5662 68.3534 24.3048C68.4373 24.5618 68.4777 24.8309 68.4731 25.1012C68.4939 25.7325 68.5679 26.361 68.6943 26.98C68.8672 27.5637 69.2016 28.0869 69.659 28.4895C69.9818 28.837 70.2356 28.971 70.2175 29.0072Z" fill="#263238"/>
<path d="M69.6445 23.3347C69.7258 22.9651 69.868 22.6116 70.0652 22.2885C70.485 21.4906 71.0121 20.7537 71.6319 20.0984C72.2379 19.4543 72.9327 18.8997 73.6955 18.4513C73.9957 18.2473 74.3296 18.0978 74.6819 18.0096C74.7254 18.0893 73.2313 18.7988 71.8169 20.2975C70.4025 21.7962 69.7206 23.3781 69.6445 23.3347Z" fill="white"/>
<path d="M128.139 2.5957C128.109 2.67523 128.087 2.75774 128.074 2.84186C128.037 3.0301 127.99 3.2654 127.936 3.56586C127.82 4.1885 127.66 5.08626 127.472 6.1976C127.109 8.42028 126.605 11.4937 126.13 14.9037C125.655 18.3137 125.288 21.4197 125.103 23.6641C125.053 24.2252 125.02 24.7501 124.995 25.1845C124.969 25.6189 124.944 26.0171 124.944 26.332V27.056C124.934 27.1402 124.934 27.2252 124.944 27.3094C124.964 27.2264 124.975 27.1414 124.977 27.056C124.977 26.8642 125.006 26.6253 125.027 26.332C125.049 26.0388 125.078 25.6334 125.118 25.1845C125.158 24.7356 125.198 24.2324 125.259 23.6713C125.484 21.4306 125.872 18.3391 126.347 14.9327C126.823 11.5262 127.29 8.44562 127.624 6.2157L128.019 3.57672C128.056 3.28712 128.088 3.0482 128.117 2.85272C128.134 2.76807 128.141 2.68191 128.139 2.5957Z" fill="#455A64"/>
<g opacity="0.2">
<path d="M219.136 28.8045L210.022 23.0451L209.757 21.2966C206.221 21.6586 201.924 22.0206 200.908 22.4586C200.904 22.7519 212.118 26.5348 219.136 28.8045Z" fill="black"/>
</g>
<g opacity="0.2">
<path d="M10.276 41.8691L5.40536 46.2747L0.0995483 47.1616V52.1861L7.91501 48.0702C8.87971 45.681 9.75373 43.4475 10.276 41.8691Z" fill="black"/>
</g>
<path d="M10.3304 41.8691C10.373 41.8595 10.4144 41.8449 10.4537 41.8257L10.8164 41.6701L12.1655 41.0583L17.1304 38.7958C19.2266 37.8509 21.729 36.7287 24.5288 35.5378C25.9323 34.9622 27.4084 34.3396 28.9714 33.8653C29.7584 33.6518 30.5853 33.525 31.4194 33.373L33.9581 32.9458C40.8488 31.8273 47.0685 30.8824 51.5801 30.1765L56.9185 29.3403L58.3692 29.105L58.7319 29.0362L58.8588 29.0037H58.7283L58.3474 29.0471L56.8968 29.2426L51.5474 30.0028C47.0286 30.6652 40.7908 31.5811 33.911 32.6997L31.3723 33.1305C30.5382 33.2825 29.7113 33.4128 28.9062 33.63C27.3177 34.1187 25.8489 34.745 24.4417 35.3242C21.642 36.5152 19.1468 37.6518 17.0542 38.6184C14.9616 39.5849 13.2825 40.3886 12.122 40.9497L10.7873 41.6049L10.4428 41.7823C10.4013 41.8056 10.3634 41.8348 10.3304 41.8691Z" fill="#263238"/>
<path d="M183.66 81.3813C193.184 81.3813 200.904 73.1594 200.904 63.0171C200.904 52.8748 193.184 44.6528 183.66 44.6528C174.136 44.6528 166.415 52.8748 166.415 63.0171C166.415 73.1594 174.136 81.3813 183.66 81.3813Z" fill="#263238"/>
<path d="M200.901 62.7058C200.901 62.7058 200.901 62.7384 200.901 62.7529C201.039 72.8889 193.43 81.233 183.906 81.3814C174.383 81.5298 166.553 73.4174 166.415 63.2814V63.2271L200.901 62.7058Z" fill="#263238"/>
<path d="M195.765 62.8325C195.863 69.9531 190.521 75.8066 183.837 75.9116C177.153 76.0166 171.652 70.3223 171.557 63.2054C171.463 56.0885 176.802 50.2277 183.486 50.1263C190.17 50.025 195.671 55.712 195.765 62.8325Z" fill="#FAFAFA"/>
<path d="M183.486 50.1263C190.173 50.025 195.671 55.712 195.765 62.8325L171.557 63.1945C171.46 56.0849 176.794 50.2277 183.486 50.1263Z" fill="#E0E0E0"/>
<path d="M191.036 62.9049C191.094 67.2489 187.841 70.8074 183.783 70.8689C179.725 70.9305 176.359 67.4661 176.301 63.1294C176.243 58.7926 179.496 55.2233 183.554 55.1654C187.613 55.1075 190.978 58.5682 191.036 62.9049Z" fill="#263238"/>
<path d="M40.9503 81.3813C50.4743 81.3813 58.1951 73.1594 58.1951 63.0171C58.1951 52.8748 50.4743 44.6528 40.9503 44.6528C31.4263 44.6528 23.7055 52.8748 23.7055 63.0171C23.7055 73.1594 31.4263 81.3813 40.9503 81.3813Z" fill="#263238"/>
<path d="M58.2023 62.7058C58.2023 62.7058 58.2023 62.7384 58.2023 62.7529C58.3402 72.8889 50.7314 81.233 41.2078 81.3814C31.6842 81.5298 23.8542 73.4174 23.7164 63.2814C23.7164 63.2814 23.7164 63.2524 23.7164 63.2343L58.2023 62.7058Z" fill="#263238"/>
<path d="M53.0561 62.8325C53.1504 69.9531 47.8083 75.8066 41.1244 75.9116C34.4404 76.0166 28.9388 70.3223 28.8445 63.2054C28.7502 56.0885 34.0886 50.2277 40.7762 50.1263C47.4638 50.025 52.9582 55.712 53.0561 62.8325Z" fill="#FAFAFA"/>
<path d="M40.7944 50.1263C47.4783 50.025 52.9763 55.712 53.0743 62.8325L28.8626 63.1945C28.7466 56.0849 34.0887 50.2277 40.7944 50.1263Z" fill="#E0E0E0"/>
<path d="M48.3233 62.9049C48.3814 67.2489 45.1283 70.8074 41.07 70.8689C37.0118 70.9305 33.6499 67.4661 33.5882 63.1294C33.5265 58.7926 36.7833 55.2233 40.8415 55.1654C44.8998 55.1075 48.2653 58.5682 48.3233 62.9049Z" fill="#263238"/>
<path d="M106.074 21.6768C106.103 21.6189 102.908 19.8414 98.9407 17.6948C94.9731 15.5481 91.7308 13.8757 91.6873 13.9336C91.6438 13.9915 94.8534 15.7725 98.8246 17.9156C102.796 20.0586 106.045 21.7383 106.074 21.6768Z" fill="white"/>
<path d="M110.524 21.2133C110.553 21.1554 107.518 19.4033 103.75 17.2856C99.9815 15.1679 96.8952 13.51 96.859 13.5679C96.8227 13.6258 99.8655 15.3779 103.637 17.4956C107.409 19.6133 110.495 21.2712 110.524 21.2133Z" fill="white"/>
<path d="M0.0959056 52.1861C0.128698 51.9462 0.143247 51.7041 0.139427 51.4621C0.139427 50.9516 0.161186 50.2892 0.175693 49.4892C0.190199 48.6891 0.175692 47.6538 0.222838 46.5751C0.269985 45.4963 1.0606 44.5189 1.79319 43.5488C2.51831 42.6584 3.33652 41.8477 4.23393 41.1306C5.04631 40.4573 5.80065 39.8781 6.43532 39.3966L7.95489 38.2708C8.14935 38.1443 8.33256 38.0014 8.50252 37.8436C8.29261 37.9441 8.09335 38.0654 7.90775 38.2056C7.54508 38.4445 6.99745 38.8029 6.34828 39.2663C5.6991 39.7296 4.93025 40.298 4.107 40.9677C3.18914 41.6846 2.35572 42.5031 1.62273 43.4076C1.24203 43.8842 0.894274 44.3861 0.58188 44.9099C0.267306 45.414 0.0736821 45.9839 0.0161185 46.5751C-0.0201481 47.6936 0.0161185 48.671 0.0161185 49.5073C0.0161185 50.3435 0.0415074 50.9553 0.0523874 51.4802C0.044968 51.7163 0.0595354 51.9526 0.0959056 52.1861Z" fill="#263238"/>
</svg>
